<svg version="1.1" id="Layer_1" xmlns="http://www.w3.org/2000/svg" xmlns:xlink="http://www.w3.org/1999/xlink" x="0px" y="0px"
	 width="100%" viewBox="0 0 785 394" enable-background="new 0 0 785 394" xml:space="preserve">
<path fill="#000000" opacity="1.000000" stroke="none" 
	d="
M599.000000,395.000000 
	C399.333344,395.000000 200.166672,395.000000 1.000000,395.000000 
	C1.000000,263.666656 1.000000,132.333328 1.000000,1.000000 
	C262.666656,1.000000 524.333313,1.000000 786.000000,1.000000 
	C786.000000,132.333328 786.000000,263.666656 786.000000,395.000000 
	C723.833313,395.000000 661.666687,395.000000 599.000000,395.000000 
M232.293503,183.259857 
	C231.183212,185.480225 230.072922,187.700592 228.371689,190.257507 
	C223.897369,197.828964 219.423065,205.400406 214.380676,213.336319 
	C211.196472,218.638184 208.012268,223.940048 204.310806,230.103149 
	C224.581696,229.720718 239.473679,221.425507 250.433838,206.409912 
	C265.070801,186.357071 279.176270,165.915024 293.424133,145.579971 
	C300.052063,136.120285 306.477753,126.518875 312.998627,116.998581 
	C312.998627,116.998581 312.981720,116.998154 313.593079,116.712486 
	C327.390472,97.124580 341.187866,77.536674 355.544403,57.590233 
	C357.787445,54.746349 359.891907,51.778400 362.303131,49.085079 
	C366.928009,43.919140 375.388214,44.422462 379.662903,50.088093 
	C383.928925,55.742222 387.988892,61.551739 392.250549,67.209213 
	C399.777008,77.200668 407.387970,87.128441 415.118439,97.751678 
	C419.495575,103.563187 423.812073,109.421600 428.262329,115.176559 
	C437.988831,127.754578 447.695587,140.349609 457.575012,152.807159 
	C467.153900,164.885681 485.217682,163.973221 493.491791,151.999557 
	C497.980072,145.504425 503.408844,145.568497 509.268066,151.500534 
	C513.678467,155.965714 518.025024,160.493988 522.598328,165.590042 
	C528.339661,171.503143 534.051147,177.445526 539.829590,183.322128 
	C547.606812,191.231461 555.435486,199.090118 563.493835,207.559525 
	C567.764893,211.752899 572.036011,215.946289 576.530334,220.358887 
	C578.335815,215.573639 573.759277,208.110123 568.986633,206.252563 
	C568.612244,205.171204 568.237854,204.089844 567.916443,202.287079 
	C555.614197,183.857376 543.312012,165.427673 530.878418,146.312683 
	C525.979980,139.239853 521.245300,132.046463 516.146545,125.121140 
	C507.517181,113.400528 493.240204,112.390816 483.088348,122.571365 
	C477.490417,128.185150 474.172729,127.810410 469.622650,121.352081 
	C448.374237,91.192268 427.171448,60.999302 405.722687,30.982309 
	C400.019104,23.000280 392.478699,17.080450 381.850922,14.395227 
	C380.395569,14.101246 378.936584,13.824144 377.485443,13.510661 
	C363.418060,10.471694 344.591675,18.616570 336.472137,31.356571 
	C320.556488,53.656109 304.556580,75.896240 288.767365,98.284935 
	C282.603943,107.024536 276.914307,116.098267 271.000916,125.001450 
	C271.000916,125.001450 271.019562,125.005074 270.417328,125.311821 
	C262.616577,137.220642 254.815857,149.129456 246.462830,161.419754 
	C242.624069,167.599274 238.785309,173.778793 234.418564,180.287399 
	C233.912872,181.175171 233.407166,182.062927 232.293503,183.259857 
M642.606995,360.311218 
	C640.982056,366.602509 635.879944,367.106110 630.768127,367.138916 
	C611.944397,367.259796 593.119507,367.205627 574.295471,367.292175 
	C572.541504,367.300232 570.790100,367.837158 568.324341,368.375580 
	C568.565979,373.196381 568.807617,378.017212 569.599304,383.480194 
	C589.108032,383.596436 608.616760,383.740326 628.125610,383.799408 
	C631.076660,383.808319 634.028931,383.422272 637.679626,383.464752 
	C639.096497,383.243195 640.513367,383.021667 642.708374,382.861084 
	C648.335999,381.755859 653.623657,380.001984 657.282959,375.066650 
	C657.282959,375.066650 657.113892,375.296692 657.710205,374.715515 
	C658.775085,371.958496 660.716614,369.216919 660.765442,366.441986 
	C661.142822,344.997406 661.184265,323.546509 661.223206,302.097351 
	C661.226440,300.323486 660.443909,298.548218 660.261841,296.622559 
	C660.261841,296.622559 660.159302,296.360809 660.159302,296.360809 
	C660.159302,296.360809 659.878784,296.336517 659.638611,295.572479 
	C659.481934,295.356323 659.325195,295.140137 659.345703,294.651398 
	C659.316589,294.382751 659.167053,294.255646 658.665649,293.616882 
	C655.459473,288.189850 650.399780,285.419800 644.455322,284.431396 
	C639.715210,283.643250 634.855469,283.172821 630.055420,283.220734 
	C614.410156,283.377045 598.708313,283.118225 583.143555,284.408783 
	C571.059387,285.410706 565.160156,292.545349 564.408569,304.632294 
	C563.913147,312.600281 563.854248,320.645630 564.330383,328.612701 
	C565.155701,342.424683 573.210693,350.058319 587.468872,351.193054 
	C588.320801,351.149872 589.172668,351.106659 590.913757,351.348907 
	C608.184265,351.348907 625.454773,351.348907 643.063538,351.348907 
	C643.063538,354.409088 643.063538,356.864349 642.830383,359.362640 
	C642.830383,359.362640 642.997070,359.562439 642.606995,360.311218 
M34.890511,305.254639 
	C27.672369,321.439270 20.454229,337.623871 12.932537,354.489136 
	C21.402325,354.489136 28.962315,354.489136 36.721920,354.489136 
	C38.970749,349.524963 41.525661,344.468872 43.552608,339.209351 
	C44.947197,335.590668 46.861065,334.179138 50.913933,334.284241 
	C63.402901,334.608124 75.977028,335.277496 88.378265,334.201447 
	C98.223686,333.347137 103.629829,336.635742 105.795044,345.901917 
	C107.569489,353.495728 112.112999,356.219086 119.818733,355.003143 
	C124.061882,354.333618 128.497421,354.883301 132.757614,354.883301 
	C132.757614,353.408875 132.864288,353.033569 132.742493,352.759979 
	C118.887054,321.635223 105.043304,290.505127 91.034889,259.449310 
	C90.493309,258.248657 88.376457,257.091125 86.966949,257.058258 
	C78.146538,256.852600 69.311531,257.178406 60.496666,256.878448 
	C57.195171,256.766144 55.865528,258.032867 54.660999,260.787659 
	C48.264332,275.417053 41.699146,289.972778 34.890511,305.254639 
M350.778534,312.635254 
	C350.817017,318.628296 350.607117,324.635254 350.941772,330.611694 
	C351.848267,346.799591 358.167938,353.213715 374.302032,354.600555 
	C377.281799,354.856720 380.289459,354.851257 383.284485,354.856628 
	C398.935913,354.884705 414.587830,354.946655 430.238770,354.857361 
	C440.328186,354.799805 439.843231,356.861633 439.835144,345.288605 
	C439.830475,338.637207 439.815399,338.648193 433.278961,338.639618 
	C415.796692,338.616699 398.312134,338.741577 380.833099,338.489410 
	C371.721649,338.357941 368.779724,334.609253 370.218079,325.672119 
	C371.770264,325.672119 373.406769,325.673523 375.043274,325.671906 
	C394.524139,325.652771 414.005188,325.680389 433.485718,325.588135 
	C440.356018,325.555573 441.881927,323.853912 441.888763,316.914825 
	C441.894165,311.420288 441.979767,305.922638 441.829224,300.431885 
	C441.558655,290.563354 437.070892,285.043732 427.375641,283.935333 
	C419.967163,283.088379 412.426392,283.136810 404.948944,283.214844 
	C393.147797,283.338013 381.299530,283.256073 369.566132,284.313690 
	C358.538513,285.307770 352.580963,291.930023 351.216492,302.751099 
	C350.843109,305.712158 350.910980,308.728912 350.778534,312.635254 
M321.494171,354.892944 
	C326.293121,354.892944 331.092041,354.892944 336.067688,354.892944 
	C336.067688,322.171051 336.067688,289.803558 336.067688,257.362061 
	C329.334381,257.362061 322.976959,257.362061 316.088074,257.362061 
	C316.088074,266.627472 316.088074,275.359619 316.088074,284.294922 
	C304.740692,284.294922 293.925110,283.962708 283.138397,284.378571 
	C269.495392,284.904510 257.109863,288.984253 251.082901,302.443787 
	C245.366562,315.209656 245.392517,328.469391 253.232834,340.628723 
	C260.118591,351.307617 271.148224,354.442169 283.051453,354.759033 
	C295.525482,355.091095 308.014252,354.870911 321.494171,354.892944 
M502.369293,322.784943 
	C502.887299,321.926941 503.405304,321.068909 504.546692,319.178436 
	C505.903290,321.212402 506.432068,322.292511 507.215546,323.136108 
	C516.165100,332.772644 525.107422,342.417023 534.184265,351.932861 
	C535.450317,353.260162 537.376465,354.616180 539.086365,354.741669 
	C544.878235,355.166718 550.710999,355.123962 556.526184,355.065033 
	C557.694641,355.053192 558.854431,354.185364 560.018188,353.712219 
	C559.518982,352.561951 559.276184,351.179077 558.478333,350.299683 
	C553.780396,345.121307 548.944214,340.068604 544.171448,334.957825 
	C535.784546,325.977020 527.409790,316.984894 518.945496,307.906921 
	C520.086365,306.552765 520.876648,305.497833 521.783875,304.555542 
	C533.221313,292.677277 544.700928,280.839294 556.082520,268.907806 
	C557.098267,267.842987 557.506775,266.198853 558.197388,264.823792 
	C556.846008,264.434601 555.505310,263.759674 554.141357,263.709076 
	C549.814026,263.548553 545.463501,263.832794 541.149963,263.536499 
	C537.685913,263.298553 535.205383,264.382660 532.839661,266.923981 
	C524.226135,276.176788 515.422302,285.252502 506.439819,294.657196 
	C497.519836,285.268951 488.856995,276.074463 480.076843,266.993408 
	C478.763153,265.634674 476.949860,263.984100 475.280884,263.881592 
	C468.970642,263.494019 462.623657,263.613983 456.292419,263.697845 
	C453.238068,263.738312 452.885284,265.462708 454.556763,267.611816 
	C456.084106,269.575684 457.863525,271.349548 459.589600,273.151794 
	C470.390747,284.429382 481.208099,295.691406 492.182434,307.127808 
	C477.996094,323.147186 462.310852,337.350708 449.357666,354.179077 
	C454.687317,354.900635 459.519623,354.522766 464.266571,354.997864 
	C469.988281,355.570557 473.965759,353.455322 477.692535,349.262115 
	C485.545013,340.426788 493.796112,331.945770 502.369293,322.784943 
M771.851929,294.737946 
	C768.540466,287.854401 762.451172,284.524780 755.425049,284.287872 
	C736.494446,283.649567 717.539124,283.717987 698.593018,283.605164 
	C696.630127,283.593475 694.638733,284.145203 692.702454,284.609985 
	C683.548096,286.807159 678.044189,292.408813 677.234131,301.832916 
	C676.452759,310.923004 676.410339,320.103271 676.523926,329.237946 
	C676.740784,346.671844 683.909973,353.866180 701.440857,354.808655 
	C702.271362,354.853302 703.103577,354.892822 703.934998,354.892181 
	C718.414062,354.881256 732.896484,355.033051 747.370239,354.748688 
	C751.962280,354.658478 756.624512,353.759003 761.088806,352.594269 
	C767.580383,350.900543 772.134949,346.324432 773.198120,339.890778 
	C775.646362,325.076233 776.308777,310.155701 771.851929,294.737946 
M206.891006,300.770844 
	C211.379669,302.075104 212.504913,305.434753 212.490891,309.643646 
	C212.447021,322.805695 212.471252,335.967987 212.499725,349.130127 
	C212.503586,350.910431 212.682602,352.690338 212.785049,354.552704 
	C219.532837,354.552704 225.772171,354.552704 232.247055,354.552704 
	C232.370651,353.121063 232.550827,351.992157 232.553070,350.862915 
	C232.582336,336.201538 232.727325,321.538452 232.557480,306.879150 
	C232.383713,291.882141 224.970734,284.512024 209.954544,284.391388 
	C190.795792,284.237518 171.635086,284.322906 152.475220,284.325836 
	C151.352753,284.326019 150.230301,284.510895 148.931610,284.625336 
	C148.931610,308.082764 148.931610,331.288544 148.931610,354.667419 
	C155.600754,354.667419 161.844437,354.667419 168.655121,354.667419 
	C168.655121,336.548431 168.655121,318.817474 168.655121,300.599213 
	C181.480347,300.599213 193.744217,300.599213 206.891006,300.770844 
z"/>
<path fill="#05E796" opacity="1.000000" stroke="none" 
	d="
M567.863464,203.008484 
	C568.237854,204.089844 568.612244,205.171204 568.613647,206.631363 
	C567.156433,206.996658 566.072327,206.983170 564.925415,206.640411 
	C555.257874,196.560959 545.696350,186.767517 536.027954,177.080750 
	C531.858459,172.903320 527.467773,168.946686 523.130371,164.522125 
	C522.980774,163.498505 523.116394,162.614609 522.739746,162.221115 
	C518.047058,157.318878 513.626953,152.070206 508.433472,147.757385 
	C503.360474,143.544617 493.200592,145.169113 491.354340,150.449570 
	C487.714630,160.859238 467.641479,161.701355 462.025635,154.651382 
	C456.414917,147.607880 450.483948,140.816101 444.971069,133.698853 
	C437.046509,123.468094 429.409546,113.015030 421.568237,102.718971 
	C419.532776,100.046288 417.193878,97.604683 414.929443,94.715042 
	C408.303986,85.647118 401.651886,76.987961 395.214111,68.172287 
	C390.698547,61.988785 386.489563,55.581924 382.116211,49.293911 
	C379.500824,45.533504 370.757355,41.531433 367.976410,43.559261 
	C363.318604,46.955624 359.291901,51.217430 354.656677,55.162178 
	C349.941925,61.443226 345.614716,67.709038 341.184875,73.901436 
	C337.274902,79.367172 333.187164,84.706032 329.293365,90.183022 
	C324.865448,96.411331 320.425323,102.640167 316.283478,109.057854 
	C314.753937,111.427780 314.057892,114.335640 312.981720,116.998154 
	C312.981720,116.998154 312.998627,116.998581 312.657135,117.039368 
	C308.553223,121.604851 304.549438,125.952644 301.077423,130.690155 
	C293.247711,141.373672 285.647583,152.226410 278.019318,163.056244 
	C273.003265,170.177536 268.162933,177.422836 263.131958,184.533386 
	C256.917328,193.316772 251.072540,202.427979 244.155273,210.627548 
	C238.416824,217.429749 230.640976,222.132080 222.182785,225.135254 
	C218.284454,226.519379 213.992950,226.796112 209.879715,227.574951 
	C209.684464,227.010986 209.489212,226.447021 209.293961,225.883041 
	C211.798904,221.566864 214.303848,217.250687 216.921539,212.594070 
	C220.361191,206.519073 223.688110,200.784500 227.331116,194.986343 
	C228.081284,194.276398 228.515335,193.630035 228.965561,192.982819 
	C228.981750,192.981949 228.979263,192.949631 229.332077,192.892990 
	C231.443161,189.554306 233.201431,186.272263 234.974197,182.987640 
	C234.988693,182.985046 234.995956,182.959579 235.351212,182.900757 
	C236.154327,181.567535 236.602173,180.293106 237.382584,178.932465 
	C240.824310,173.583481 243.933487,168.320694 247.381653,162.979156 
	C248.577469,162.139664 249.654694,161.522003 250.256165,160.595505 
	C255.040009,153.226456 259.894409,145.894699 264.392029,138.351654 
	C266.928345,134.097855 268.831299,129.466400 271.019562,125.005074 
	C271.019562,125.005074 271.000916,125.001450 271.395142,125.011658 
	C272.710052,124.745872 274.069153,124.764862 274.483826,124.148491 
	C278.847900,117.661659 283.031342,111.053780 287.325684,104.519455 
	C290.600250,99.536858 293.830444,94.516541 297.319427,89.685646 
	C301.635651,83.709404 306.311066,77.992599 310.629181,72.017662 
	C316.937897,63.288345 323.114075,54.461842 329.253571,45.612122 
	C332.581085,40.815613 335.715637,35.885193 338.962158,30.996632 
	C338.987030,30.978085 339.025146,30.929083 339.336243,30.898113 
	C340.057495,30.243145 340.467651,29.619144 340.906738,28.965605 
	C340.935669,28.936066 340.993378,28.876841 341.307007,28.862320 
	C342.034912,28.229130 342.449158,27.610462 342.895142,26.959391 
	C342.926880,26.926987 342.991760,26.863583 343.304626,26.852854 
	C344.041931,26.231010 344.466370,25.619896 344.920837,24.979805 
	C344.950897,24.950827 345.009979,24.891781 345.321655,24.875237 
	C346.068665,24.250259 346.504028,23.641830 347.283142,22.950661 
	C349.156860,21.649269 350.504730,19.895561 352.247620,19.302404 
	C360.881775,16.363941 369.609314,13.661662 379.071960,15.427133 
	C380.038757,16.168627 380.860687,16.799129 381.739929,16.893042 
	C390.783844,17.859037 396.872009,24.020166 402.452393,29.968828 
	C408.669922,36.596695 413.496704,44.531418 418.908173,51.912449 
	C422.873291,57.320705 426.913727,62.678230 430.727631,68.191864 
	C437.495087,77.975266 444.160339,87.830322 450.783569,97.712250 
	C455.683716,105.023285 460.738068,112.254456 465.199585,119.829903 
	C470.434540,128.718552 477.866272,131.010422 484.111542,124.786835 
	C489.453827,119.463112 495.103699,116.600655 502.975647,118.818787 
	C508.301666,120.319527 512.307617,122.512199 515.289062,127.472153 
	C519.382507,134.281906 524.377991,140.549408 529.055298,147.381622 
	C533.509399,153.593384 538.216553,159.263657 542.208313,165.399353 
	C548.846436,175.602707 554.912415,186.177155 561.478394,196.429428 
	C563.093445,198.951202 565.708252,200.832672 567.863464,203.008484 
z"/>
<path fill="#EDF0F4" opacity="1.000000" stroke="none" 
	d="
M660.026489,296.773590 
	C660.443909,298.548218 661.226440,300.323486 661.223206,302.097351 
	C661.184265,323.546509 661.142822,344.997406 660.765442,366.441986 
	C660.716614,369.216919 658.775085,371.958496 657.442932,374.977051 
	C657.175659,375.238586 657.315735,375.204254 657.315735,375.204254 
	C653.623657,380.001984 648.335999,381.755859 642.089294,382.605957 
	C639.973694,382.640198 638.477112,382.929565 636.980591,383.218933 
	C634.028931,383.422272 631.076660,383.808319 628.125610,383.799408 
	C608.616760,383.740326 589.108032,383.596436 569.316528,382.704041 
	C569.034912,377.328064 569.036194,372.728302 569.037476,368.128510 
	C570.790100,367.837158 572.541504,367.300232 574.295471,367.292175 
	C593.119507,367.205627 611.944397,367.259796 630.768127,367.138916 
	C635.879944,367.106110 640.982056,366.602509 642.823975,359.899719 
	C643.041016,359.488190 643.063538,359.319611 643.063538,359.319611 
	C643.063538,356.864349 643.063538,354.409088 643.063538,351.348907 
	C625.454773,351.348907 608.184265,351.348907 590.293213,350.954010 
	C588.790955,350.676788 587.909302,350.794495 587.027649,350.912201 
	C573.210693,350.058319 565.155701,342.424683 564.330383,328.612701 
	C563.854248,320.645630 563.913147,312.600281 564.408569,304.632294 
	C565.160156,292.545349 571.059387,285.410706 583.143555,284.408783 
	C598.708313,283.118225 614.410156,283.377045 630.055420,283.220734 
	C634.855469,283.172821 639.715210,283.643250 644.455322,284.431396 
	C650.399780,285.419800 655.459473,288.189850 658.719055,294.080963 
	C658.786133,294.795105 658.918152,294.921417 659.168518,294.923981 
	C659.325195,295.140137 659.481934,295.356323 659.702881,296.039795 
	C659.767151,296.507141 660.026489,296.773590 660.026489,296.773590 
M590.760986,335.184296 
	C608.156494,335.184296 625.551941,335.184296 643.135925,335.184296 
	C643.135925,326.317383 643.347717,317.656769 643.065063,309.012299 
	C642.860168,302.745880 640.234619,299.977356 634.186218,299.873993 
	C620.192566,299.634888 606.189575,299.632355 592.195557,299.856689 
	C585.913513,299.957367 583.147034,302.975891 582.904907,309.252838 
	C582.705994,314.410614 582.700623,319.591675 582.948120,324.746155 
	C583.174866,329.468750 584.565491,333.680237 590.760986,335.184296 
z"/>
<path fill="#EDF0F4" opacity="1.000000" stroke="none" 
	d="
M35.041420,304.904327 
	C41.699146,289.972778 48.264332,275.417053 54.660999,260.787659 
	C55.865528,258.032867 57.195171,256.766144 60.496666,256.878448 
	C69.311531,257.178406 78.146538,256.852600 86.966949,257.058258 
	C88.376457,257.091125 90.493309,258.248657 91.034889,259.449310 
	C105.043304,290.505127 118.887054,321.635223 132.742493,352.759979 
	C132.864288,353.033569 132.757614,353.408875 132.757614,354.883301 
	C128.497421,354.883301 124.061882,354.333618 119.818733,355.003143 
	C112.112999,356.219086 107.569489,353.495728 105.795044,345.901917 
	C103.629829,336.635742 98.223686,333.347137 88.378265,334.201447 
	C75.977028,335.277496 63.402901,334.608124 50.913933,334.284241 
	C46.861065,334.179138 44.947197,335.590668 43.552608,339.209351 
	C41.525661,344.468872 38.970749,349.524963 36.721920,354.489136 
	C28.962315,354.489136 21.402325,354.489136 12.932537,354.489136 
	C20.454229,337.623871 27.672369,321.439270 35.041420,304.904327 
M54.849567,315.937012 
	C67.202171,315.937012 79.554779,315.937012 92.527977,315.937012 
	C86.135269,301.721405 80.022408,288.128113 73.809891,274.313202 
	C72.743950,275.145752 72.367241,275.291382 72.249107,275.553558 
	C66.314285,288.724670 60.401585,301.905731 54.849567,315.937012 
z"/>
<path fill="#EBEEF2" opacity="1.000000" stroke="none" 
	d="
M350.777435,312.177673 
	C350.910980,308.728912 350.843109,305.712158 351.216492,302.751099 
	C352.580963,291.930023 358.538513,285.307770 369.566132,284.313690 
	C381.299530,283.256073 393.147797,283.338013 404.948944,283.214844 
	C412.426392,283.136810 419.967163,283.088379 427.375641,283.935333 
	C437.070892,285.043732 441.558655,290.563354 441.829224,300.431885 
	C441.979767,305.922638 441.894165,311.420288 441.888763,316.914825 
	C441.881927,323.853912 440.356018,325.555573 433.485718,325.588135 
	C414.005188,325.680389 394.524139,325.652771 375.043274,325.671906 
	C373.406769,325.673523 371.770264,325.672119 370.218079,325.672119 
	C368.779724,334.609253 371.721649,338.357941 380.833099,338.489410 
	C398.312134,338.741577 415.796692,338.616699 433.278961,338.639618 
	C439.815399,338.648193 439.830475,338.637207 439.835144,345.288605 
	C439.843231,356.861633 440.328186,354.799805 430.238770,354.857361 
	C414.587830,354.946655 398.935913,354.884705 383.284485,354.856628 
	C380.289459,354.851257 377.281799,354.856720 374.302032,354.600555 
	C358.167938,353.213715 351.848267,346.799591 350.941772,330.611694 
	C350.607117,324.635254 350.817017,318.628296 350.777435,312.177673 
M375.748138,311.871857 
	C390.033997,311.852936 404.319977,311.856445 418.605530,311.780334 
	C420.030792,311.772736 422.618927,311.451447 422.687073,310.985931 
	C423.110535,308.092499 423.547852,304.951263 422.773926,302.236176 
	C422.377716,300.846283 419.493042,299.336151 417.707947,299.304688 
	C404.922546,299.079132 392.122803,298.956787 379.343689,299.338623 
	C371.062103,299.586029 368.925751,302.772583 370.053650,311.862885 
	C371.595490,311.862885 373.208313,311.862885 375.748138,311.871857 
z"/>
<path fill="#ECF0F3" opacity="1.000000" stroke="none" 
	d="
M320.995361,354.892517 
	C308.014252,354.870911 295.525482,355.091095 283.051453,354.759033 
	C271.148224,354.442169 260.118591,351.307617 253.232834,340.628723 
	C245.392517,328.469391 245.366562,315.209656 251.082901,302.443787 
	C257.109863,288.984253 269.495392,284.904510 283.138397,284.378571 
	C293.925110,283.962708 304.740692,284.294922 316.088074,284.294922 
	C316.088074,275.359619 316.088074,266.627472 316.088074,257.362061 
	C322.976959,257.362061 329.334381,257.362061 336.067688,257.362061 
	C336.067688,289.803558 336.067688,322.171051 336.067688,354.892944 
	C331.092041,354.892944 326.293121,354.892944 320.995361,354.892517 
M280.805634,300.859436 
	C268.192993,304.899475 263.330109,324.720245 272.836700,334.098938 
	C274.855927,336.091003 277.847900,338.195557 280.465332,338.294220 
	C292.346710,338.741791 304.254456,338.490173 315.914551,338.490173 
	C315.914551,325.862885 315.914551,313.307495 315.914551,300.768799 
	C304.223969,300.768799 292.931732,300.768799 280.805634,300.859436 
z"/>
<path fill="#F7F8F7" opacity="1.000000" stroke="none" 
	d="
M502.126465,323.052185 
	C493.796112,331.945770 485.545013,340.426788 477.692535,349.262115 
	C473.965759,353.455322 469.988281,355.570557 464.266571,354.997864 
	C459.519623,354.522766 454.687317,354.900635 449.357666,354.179077 
	C462.310852,337.350708 477.996094,323.147186 492.182434,307.127808 
	C481.208099,295.691406 470.390747,284.429382 459.589600,273.151794 
	C457.863525,271.349548 456.084106,269.575684 454.556763,267.611816 
	C452.885284,265.462708 453.238068,263.738312 456.292419,263.697845 
	C462.623657,263.613983 468.970642,263.494019 475.280884,263.881592 
	C476.949860,263.984100 478.763153,265.634674 480.076843,266.993408 
	C488.856995,276.074463 497.519836,285.268951 506.439819,294.657196 
	C515.422302,285.252502 524.226135,276.176788 532.839661,266.923981 
	C535.205383,264.382660 537.685913,263.298553 541.149963,263.536499 
	C545.463501,263.832794 549.814026,263.548553 554.141357,263.709076 
	C555.505310,263.759674 556.846008,264.434601 558.197388,264.823792 
	C557.506775,266.198853 557.098267,267.842987 556.082520,268.907806 
	C544.700928,280.839294 533.221313,292.677277 521.783875,304.555542 
	C520.876648,305.497833 520.086365,306.552765 518.945496,307.906921 
	C527.409790,316.984894 535.784546,325.977020 544.171448,334.957825 
	C548.944214,340.068604 553.780396,345.121307 558.478333,350.299683 
	C559.276184,351.179077 559.518982,352.561951 560.018188,353.712219 
	C558.854431,354.185364 557.694641,355.053192 556.526184,355.065033 
	C550.710999,355.123962 544.878235,355.166718 539.086365,354.741669 
	C537.376465,354.616180 535.450317,353.260162 534.184265,351.932861 
	C525.107422,342.417023 516.165100,332.772644 507.215546,323.136108 
	C506.432068,322.292511 505.903290,321.212402 504.546692,319.178436 
	C503.405304,321.068909 502.887299,321.926941 502.126465,323.052185 
z"/>
<path fill="#EBEEF2" opacity="1.000000" stroke="none" 
	d="
M772.010132,295.081390 
	C776.308777,310.155701 775.646362,325.076233 773.198120,339.890778 
	C772.134949,346.324432 767.580383,350.900543 761.088806,352.594269 
	C756.624512,353.759003 751.962280,354.658478 747.370239,354.748688 
	C732.896484,355.033051 718.414062,354.881256 703.934998,354.892181 
	C703.103577,354.892822 702.271362,354.853302 701.440857,354.808655 
	C683.909973,353.866180 676.740784,346.671844 676.523926,329.237946 
	C676.410339,320.103271 676.452759,310.923004 677.234131,301.832916 
	C678.044189,292.408813 683.548096,286.807159 692.702454,284.609985 
	C694.638733,284.145203 696.630127,283.593475 698.593018,283.605164 
	C717.539124,283.717987 736.494446,283.649567 755.425049,284.287872 
	C762.451172,284.524780 768.540466,287.854401 772.010132,295.081390 
M731.499023,299.765961 
	C722.689209,299.766449 713.877075,299.644226 705.070374,299.808594 
	C698.710815,299.927307 696.042358,302.133301 695.686218,308.350586 
	C695.269287,315.630310 695.484985,322.958923 695.703796,330.257996 
	C695.848389,335.080292 698.658875,338.354889 703.447754,338.431610 
	C718.225708,338.668427 733.013428,338.614807 747.791321,338.345093 
	C752.336853,338.262115 755.306152,335.161652 755.513428,330.647308 
	C755.862793,323.040192 756.038452,315.376984 755.499329,307.793365 
	C755.108459,302.294891 752.055908,300.031403 746.458862,299.801453 
	C741.812683,299.610535 737.152283,299.765289 731.499023,299.765961 
z"/>
<path fill="#EAEDF1" opacity="1.000000" stroke="none" 
	d="
M206.449539,300.685028 
	C193.744217,300.599213 181.480347,300.599213 168.655121,300.599213 
	C168.655121,318.817474 168.655121,336.548431 168.655121,354.667419 
	C161.844437,354.667419 155.600754,354.667419 148.931610,354.667419 
	C148.931610,331.288544 148.931610,308.082764 148.931610,284.625336 
	C150.230301,284.510895 151.352753,284.326019 152.475220,284.325836 
	C171.635086,284.322906 190.795792,284.237518 209.954544,284.391388 
	C224.970734,284.512024 232.383713,291.882141 232.557480,306.879150 
	C232.727325,321.538452 232.582336,336.201538 232.553070,350.862915 
	C232.550827,351.992157 232.370651,353.121063 232.247055,354.552704 
	C225.772171,354.552704 219.532837,354.552704 212.785049,354.552704 
	C212.682602,352.690338 212.503586,350.910431 212.499725,349.130127 
	C212.471252,335.967987 212.447021,322.805695 212.490891,309.643646 
	C212.504913,305.434753 211.379669,302.075104 206.449539,300.685028 
z"/>
<path fill="#26BB86" opacity="1.000000" stroke="none" 
	d="
M528.986938,147.049271 
	C524.377991,140.549408 519.382507,134.281906 515.289062,127.472153 
	C512.307617,122.512199 508.301666,120.319527 502.975647,118.818787 
	C495.103699,116.600655 489.453827,119.463112 484.111542,124.786835 
	C477.866272,131.010422 470.434540,128.718552 465.199585,119.829903 
	C460.738068,112.254456 455.683716,105.023285 450.783569,97.712250 
	C444.160339,87.830322 437.495087,77.975266 430.727631,68.191864 
	C426.913727,62.678230 422.873291,57.320705 418.908173,51.912449 
	C413.496704,44.531418 408.669922,36.596695 402.452393,29.968828 
	C396.872009,24.020166 390.783844,17.859037 381.739929,16.893042 
	C380.860687,16.799129 380.038757,16.168627 379.520996,15.399748 
	C380.753174,14.968957 381.654602,14.925630 382.556030,14.882301 
	C392.478699,17.080450 400.019104,23.000280 405.722687,30.982309 
	C427.171448,60.999302 448.374237,91.192268 469.622650,121.352081 
	C474.172729,127.810410 477.490417,128.185150 483.088348,122.571365 
	C493.240204,112.390816 507.517181,113.400528 516.146545,125.121140 
	C521.245300,132.046463 525.979980,139.239853 530.606812,146.656189 
	C529.885742,147.016220 529.436340,147.032745 528.986938,147.049271 
z"/>
<path fill="#26C089" opacity="1.000000" stroke="none" 
	d="
M216.808777,212.934494 
	C214.303848,217.250687 211.798904,221.566864 209.293961,225.883041 
	C209.489212,226.447021 209.684464,227.010986 209.879715,227.574951 
	C213.992950,226.796112 218.284454,226.519379 222.182785,225.135254 
	C230.640976,222.132080 238.416824,217.429749 244.155273,210.627548 
	C251.072540,202.427979 256.917328,193.316772 263.131958,184.533386 
	C268.162933,177.422836 273.003265,170.177536 278.019318,163.056244 
	C285.647583,152.226410 293.247711,141.373672 301.077423,130.690155 
	C304.549438,125.952644 308.553223,121.604851 312.655365,117.030930 
	C306.477753,126.518875 300.052063,136.120285 293.424133,145.579971 
	C279.176270,165.915024 265.070801,186.357071 250.433838,206.409912 
	C239.473679,221.425507 224.581696,229.720718 204.310806,230.103149 
	C208.012268,223.940048 211.196472,218.638184 214.975876,213.154022 
	C215.983643,212.959335 216.396210,212.946915 216.808777,212.934494 
z"/>
<path fill="#22BE88" opacity="1.000000" stroke="none" 
	d="
M414.994324,95.056931 
	C417.193878,97.604683 419.532776,100.046288 421.568237,102.718971 
	C429.409546,113.015030 437.046509,123.468094 444.971069,133.698853 
	C450.483948,140.816101 456.414917,147.607880 462.025635,154.651382 
	C467.641479,161.701355 487.714630,160.859238 491.354340,150.449570 
	C493.200592,145.169113 503.360474,143.544617 508.433472,147.757385 
	C513.626953,152.070206 518.047058,157.318878 522.739746,162.221115 
	C523.116394,162.614609 522.980774,163.498505 522.936462,164.556946 
	C522.789734,164.959381 522.400024,164.994156 522.400024,164.994156 
	C518.025024,160.493988 513.678467,155.965714 509.268066,151.500534 
	C503.408844,145.568497 497.980072,145.504425 493.491791,151.999557 
	C485.217682,163.973221 467.153900,164.885681 457.575012,152.807159 
	C447.695587,140.349609 437.988831,127.754578 428.262329,115.176559 
	C423.812073,109.421600 419.495575,103.563187 415.049683,97.079361 
	C414.985382,95.957001 414.989868,95.506973 414.994324,95.056931 
z"/>
<path fill="#25C28B" opacity="1.000000" stroke="none" 
	d="
M338.937256,31.015182 
	C335.715637,35.885193 332.581085,40.815613 329.253571,45.612122 
	C323.114075,54.461842 316.937897,63.288345 310.629181,72.017662 
	C306.311066,77.992599 301.635651,83.709404 297.319427,89.685646 
	C293.830444,94.516541 290.600250,99.536858 287.325684,104.519455 
	C283.031342,111.053780 278.847900,117.661659 274.483826,124.148491 
	C274.069153,124.764862 272.710052,124.745872 271.399139,125.020828 
	C276.914307,116.098267 282.603943,107.024536 288.767365,98.284935 
	C304.556580,75.896240 320.556488,53.656109 337.075806,31.181999 
	C338.098755,31.010014 338.518005,31.012600 338.937256,31.015182 
z"/>
<path fill="#27B385" opacity="1.000000" stroke="none" 
	d="
M414.929443,94.715042 
	C414.989868,95.506973 414.985382,95.957001 414.972229,96.744949 
	C407.387970,87.128441 399.777008,77.200668 392.250549,67.209213 
	C387.988892,61.551739 383.928925,55.742222 379.662903,50.088093 
	C375.388214,44.422462 366.928009,43.919140 362.303131,49.085079 
	C359.891907,51.778400 357.787445,54.746349 355.267517,57.413994 
	C354.993652,56.530174 354.996613,55.822594 354.999603,55.115013 
	C359.291901,51.217430 363.318604,46.955624 367.976410,43.559261 
	C370.757355,41.531433 379.500824,45.533504 382.116211,49.293911 
	C386.489563,55.581924 390.698547,61.988785 395.214111,68.172287 
	C401.651886,76.987961 408.303986,85.647118 414.929443,94.715042 
z"/>
<path fill="#26C089" opacity="1.000000" stroke="none" 
	d="
M354.656677,55.162174 
	C354.996613,55.822594 354.993652,56.530174 354.987976,57.593269 
	C341.187866,77.536674 327.390472,97.124580 313.287415,116.855316 
	C314.057892,114.335640 314.753937,111.427780 316.283478,109.057854 
	C320.425323,102.640167 324.865448,96.411331 329.293365,90.183022 
	C333.187164,84.706032 337.274902,79.367172 341.184875,73.901436 
	C345.614716,67.709038 349.941925,61.443226 354.656677,55.162174 
z"/>
<path fill="#21C48A" opacity="1.000000" stroke="none" 
	d="
M529.055298,147.381622 
	C529.436340,147.032745 529.885742,147.016220 530.672485,146.998840 
	C543.312012,165.427673 555.614197,183.857376 567.889954,202.647781 
	C565.708252,200.832672 563.093445,198.951202 561.478394,196.429428 
	C554.912415,186.177155 548.846436,175.602707 542.208313,165.399353 
	C538.216553,159.263657 533.509399,153.593384 529.055298,147.381622 
z"/>
<path fill="#20C088" opacity="1.000000" stroke="none" 
	d="
M522.499146,165.292099 
	C522.400024,164.994156 522.789734,164.959381 522.983643,164.924561 
	C527.467773,168.946686 531.858459,172.903320 536.027954,177.080750 
	C545.696350,186.767517 555.257874,196.560959 564.634399,206.647766 
	C564.018066,206.979767 563.630066,206.975159 563.242065,206.970520 
	C555.435486,199.090118 547.606812,191.231461 539.829590,183.322128 
	C534.051147,177.445526 528.339661,171.503143 522.499146,165.292099 
z"/>
<path fill="#25C28B" opacity="1.000000" stroke="none" 
	d="
M270.718445,125.158447 
	C268.831299,129.466400 266.928345,134.097855 264.392029,138.351654 
	C259.894409,145.894699 255.040009,153.226456 250.256165,160.595505 
	C249.654694,161.522003 248.577469,162.139664 247.369812,162.642105 
	C247.017700,161.935303 247.016418,161.486786 247.015137,161.038284 
	C254.815857,149.129456 262.616577,137.220642 270.718445,125.158447 
z"/>
<path fill="#30B286" opacity="1.000000" stroke="none" 
	d="
M338.962158,30.996635 
	C338.518005,31.012600 338.098755,31.010014 337.364685,31.008747 
	C344.591675,18.616570 363.418060,10.471694 377.485443,13.510661 
	C378.936584,13.824144 380.395569,14.101246 382.203491,14.638765 
	C381.654602,14.925630 380.753174,14.968957 379.402710,15.039671 
	C369.609314,13.661662 360.881775,16.363941 352.247620,19.302404 
	C350.504730,19.895561 349.156860,21.649269 346.976807,22.977055 
	C345.887817,23.688051 345.448883,24.289917 345.009979,24.891783 
	C345.009979,24.891781 344.950897,24.950827 344.621094,25.014685 
	C343.858154,25.673557 343.424957,26.268574 342.991760,26.863586 
	C342.991760,26.863583 342.926880,26.926987 342.597748,27.000343 
	C341.843536,27.674746 341.418457,28.275793 340.993378,28.876839 
	C340.993378,28.876841 340.935669,28.936066 340.605103,29.007372 
	C339.858093,29.695482 339.441620,30.312284 339.025146,30.929085 
	C339.025146,30.929083 338.987030,30.978085 338.962158,30.996635 
z"/>
<path fill="#2BBA89" opacity="1.000000" stroke="none" 
	d="
M563.367920,207.265030 
	C563.630066,206.975159 564.018066,206.979767 564.697144,206.977020 
	C566.072327,206.983170 567.156433,206.996658 568.645752,206.984116 
	C573.759277,208.110123 578.335815,215.573639 576.530334,220.358887 
	C572.036011,215.946289 567.764893,211.752899 563.367920,207.265030 
z"/>
<path fill="#2BB180" opacity="1.000000" stroke="none" 
	d="
M216.921539,212.594070 
	C216.396210,212.946915 215.983643,212.959335 215.259918,212.971802 
	C219.423065,205.400406 223.897369,197.828964 228.675537,190.468155 
	C228.979355,191.435745 228.979309,192.192688 228.979263,192.949631 
	C228.979263,192.949631 228.981750,192.981949 228.645203,193.024536 
	C227.877457,193.728058 227.446243,194.388992 227.015015,195.049927 
	C223.688110,200.784500 220.361191,206.519073 216.921539,212.594070 
z"/>
<path fill="#29B583" opacity="1.000000" stroke="none" 
	d="
M246.738983,161.229019 
	C247.016418,161.486786 247.017700,161.935303 247.030823,162.720856 
	C243.933487,168.320694 240.824310,173.583481 237.121399,179.019608 
	C236.080780,179.508286 235.633926,179.823624 235.126892,180.093842 
	C235.066727,180.048737 234.946564,179.958313 234.946564,179.958313 
	C238.785309,173.778793 242.624069,167.599274 246.738983,161.229019 
z"/>
<path fill="#E6EAEE" opacity="1.000000" stroke="none" 
	d="
M568.680908,368.252045 
	C569.036194,372.728302 569.034912,377.328064 569.041504,382.382935 
	C568.807617,378.017212 568.565979,373.196381 568.680908,368.252045 
z"/>
<path fill="#27CE91" opacity="1.000000" stroke="none" 
	d="
M229.332077,192.892990 
	C228.979309,192.192688 228.979355,191.435745 228.971008,190.299866 
	C230.072922,187.700592 231.183212,185.480225 232.940491,183.120605 
	C234.044876,182.984314 234.502274,182.987274 234.959686,182.990219 
	C233.201431,186.272263 231.443161,189.554306 229.332077,192.892990 
z"/>
<path fill="#E6EAEE" opacity="1.000000" stroke="none" 
	d="
M637.330078,383.341858 
	C638.477112,382.929565 639.973694,382.640198 641.700195,382.575470 
	C640.513367,383.021667 639.096497,383.243195 637.330078,383.341858 
z"/>
<path fill="#E6EAEE" opacity="1.000000" stroke="none" 
	d="
M587.248291,351.052612 
	C587.909302,350.794495 588.790955,350.676788 589.848633,350.811279 
	C589.172668,351.106659 588.320801,351.149872 587.248291,351.052612 
z"/>
<path fill="#29B583" opacity="1.000000" stroke="none" 
	d="
M234.974182,182.987640 
	C234.502274,182.987274 234.044876,182.984314 233.244461,182.966019 
	C233.407166,182.062927 233.912872,181.175171 234.682556,180.122864 
	C234.946564,179.958313 235.066727,180.048737 235.064941,180.442047 
	C235.040771,181.543442 235.018356,182.251511 234.995956,182.959579 
	C234.995956,182.959579 234.988693,182.985046 234.974182,182.987640 
z"/>
<path fill="#B6BDC3" opacity="1.000000" stroke="none" 
	d="
M659.257080,294.787689 
	C658.918152,294.921417 658.786133,294.795105 658.834839,294.407532 
	C659.167053,294.255646 659.316589,294.382751 659.257080,294.787689 
z"/>
<path fill="#B6BDC3" opacity="1.000000" stroke="none" 
	d="
M660.144165,296.698059 
	C660.026489,296.773590 659.767151,296.507141 659.822998,296.421814 
	C659.878784,296.336517 660.159302,296.360809 660.159302,296.360809 
	C660.159302,296.360809 660.261841,296.622559 660.144165,296.698059 
z"/>
<path fill="#E6EAEE" opacity="1.000000" stroke="none" 
	d="
M642.946960,359.341125 
	C643.063538,359.319611 643.041016,359.488190 643.019043,359.525330 
	C642.997070,359.562439 642.830383,359.362640 642.946960,359.341125 
z"/>
<path fill="#E6EAEE" opacity="1.000000" stroke="none" 
	d="
M657.299316,375.135437 
	C657.315735,375.204254 657.175659,375.238586 657.144775,375.267639 
	C657.113892,375.296692 657.282959,375.066650 657.299316,375.135437 
z"/>
<path fill="#27CE91" opacity="1.000000" stroke="none" 
	d="
M235.351212,182.900757 
	C235.018356,182.251511 235.040771,181.543442 235.125122,180.487152 
	C235.633926,179.823624 236.080780,179.508286 236.788849,179.105804 
	C236.602173,180.293106 236.154327,181.567535 235.351212,182.900757 
z"/>
<path fill="#27CE91" opacity="1.000000" stroke="none" 
	d="
M227.331116,194.986343 
	C227.446243,194.388992 227.877457,193.728058 228.629028,193.025391 
	C228.515335,193.630035 228.081284,194.276398 227.331116,194.986343 
z"/>
<path fill="#25C28B" opacity="1.000000" stroke="none" 
	d="
M339.336243,30.898117 
	C339.441620,30.312284 339.858093,29.695482 340.576172,29.036911 
	C340.467651,29.619144 340.057495,30.243145 339.336243,30.898117 
z"/>
<path fill="#25C28B" opacity="1.000000" stroke="none" 
	d="
M341.307007,28.862318 
	C341.418457,28.275793 341.843536,27.674746 342.566010,27.032745 
	C342.449158,27.610462 342.034912,28.229130 341.307007,28.862318 
z"/>
<path fill="#25C28B" opacity="1.000000" stroke="none" 
	d="
M343.304626,26.852858 
	C343.424957,26.268574 343.858154,25.673557 344.591064,25.043663 
	C344.466370,25.619896 344.041931,26.231010 343.304626,26.852858 
z"/>
<path fill="#25C28B" opacity="1.000000" stroke="none" 
	d="
M345.321655,24.875237 
	C345.448883,24.289917 345.887817,23.688051 346.633057,23.059793 
	C346.504028,23.641830 346.068665,24.250259 345.321655,24.875237 
z"/>
<path fill="#030303" opacity="1.000000" stroke="none" 
	d="
M590.360046,335.095581 
	C584.565491,333.680237 583.174866,329.468750 582.948120,324.746155 
	C582.700623,319.591675 582.705994,314.410614 582.904907,309.252838 
	C583.147034,302.975891 585.913513,299.957367 592.195557,299.856689 
	C606.189575,299.632355 620.192566,299.634888 634.186218,299.873993 
	C640.234619,299.977356 642.860168,302.745880 643.065063,309.012299 
	C643.347717,317.656769 643.135925,326.317383 643.135925,335.184296 
	C625.551941,335.184296 608.156494,335.184296 590.360046,335.095581 
z"/>
<path fill="#030404" opacity="1.000000" stroke="none" 
	d="
M54.668022,315.511383 
	C60.401585,301.905731 66.314285,288.724670 72.249107,275.553558 
	C72.367241,275.291382 72.743950,275.145752 73.809891,274.313202 
	C80.022408,288.128113 86.135269,301.721405 92.527977,315.937012 
	C79.554779,315.937012 67.202171,315.937012 54.668022,315.511383 
z"/>
<path fill="#0A0B0C" opacity="1.000000" stroke="none" 
	d="
M375.284607,311.867371 
	C373.208313,311.862885 371.595490,311.862885 370.053650,311.862885 
	C368.925751,302.772583 371.062103,299.586029 379.343689,299.338623 
	C392.122803,298.956787 404.922546,299.079132 417.707947,299.304688 
	C419.493042,299.336151 422.377716,300.846283 422.773926,302.236176 
	C423.547852,304.951263 423.110535,308.092499 422.687073,310.985931 
	C422.618927,311.451447 420.030792,311.772736 418.605530,311.780334 
	C404.319977,311.856445 390.033997,311.852936 375.284607,311.867371 
z"/>
<path fill="#030304" opacity="1.000000" stroke="none" 
	d="
M281.222595,300.814117 
	C292.931732,300.768799 304.223969,300.768799 315.914551,300.768799 
	C315.914551,313.307495 315.914551,325.862885 315.914551,338.490173 
	C304.254456,338.490173 292.346710,338.741791 280.465332,338.294220 
	C277.847900,338.195557 274.855927,336.091003 272.836700,334.098938 
	C263.330109,324.720245 268.192993,304.899475 281.222595,300.814117 
z"/>
<path fill="#030304" opacity="1.000000" stroke="none" 
	d="
M731.998596,299.766418 
	C737.152283,299.765289 741.812683,299.610535 746.458862,299.801453 
	C752.055908,300.031403 755.108459,302.294891 755.499329,307.793365 
	C756.038452,315.376984 755.862793,323.040192 755.513428,330.647308 
	C755.306152,335.161652 752.336853,338.262115 747.791321,338.345093 
	C733.013428,338.614807 718.225708,338.668427 703.447754,338.431610 
	C698.658875,338.354889 695.848389,335.080292 695.703796,330.257996 
	C695.484985,322.958923 695.269287,315.630310 695.686218,308.350586 
	C696.042358,302.133301 698.710815,299.927307 705.070374,299.808594 
	C713.877075,299.644226 722.689209,299.766449 731.998596,299.766418 
z"/>
</svg>